<svg width="226" height="29" viewBox="0 0 226 29" fill="none" xmlns="http://www.w3.org/2000/svg">
<path fill-rule="evenodd" clip-rule="evenodd" d="M10.4801 29C8.32434 29 6.3504 28.7192 4.55826 28.1577C2.76612 27.5694 1.2467 26.7538 0 25.7109L1.28566 22.4219C2.58431 23.438 3.97387 24.2001 5.45433 24.7082C6.93479 25.2162 8.61005 25.4703 10.4801 25.4703C12.6878 25.4703 14.3111 25.0692 15.35 24.2669C16.4149 23.438 16.9474 22.3684 16.9474 21.0581C16.9474 19.9885 16.5708 19.1461 15.8176 18.5311C15.0643 17.8893 13.8046 17.3813 12.0385 17.0069L7.86981 16.1245C5.40238 15.5897 3.5583 14.7072 2.33757 13.4772C1.14281 12.2471 0.545433 10.5892 0.545433 8.50346C0.545433 6.81881 0.973987 5.33472 1.8311 4.05118C2.71418 2.76764 3.93491 1.77824 5.49329 1.08299C7.05167 0.360997 8.8438 0 10.8697 0C12.7398 0 14.467 0.294146 16.0513 0.882435C17.6616 1.44399 19.0252 2.27294 20.1421 3.36929L18.8174 6.53804C16.6097 4.5325 13.9475 3.52974 10.8307 3.52974C8.90874 3.52974 7.37633 3.97095 6.23352 4.85339C5.11668 5.73582 4.55826 6.9124 4.55826 8.38313C4.55826 9.50622 4.90889 10.402 5.61017 11.0705C6.31144 11.7391 7.48022 12.2471 9.11652 12.5947L13.2462 13.4772C15.8435 14.0387 17.7785 14.9078 19.0512 16.0844C20.3239 17.2342 20.9602 18.7985 20.9602 20.7773C20.9602 22.4352 20.5317 23.8792 19.6745 25.1093C18.8174 26.3393 17.6097 27.302 16.0513 27.9972C14.4929 28.6657 12.6359 29 10.4801 29ZM31.7937 28.639V0.360997H35.8455V12.5546H51.2345V0.360997H55.2473V12.5491H67.8936V0.360997H85.6591V3.73029H71.7895V12.5491H97.0691V0.360997H114.835V3.73029H100.965V12.5947H114.016V15.964H100.965V25.2697H114.835V28.639H97.0691V16.0185H71.7895V25.2697H85.6591V28.639H67.8936V16.0185H55.2473V28.639H51.2345V16.0443H35.8455V28.639H31.7937ZM126.245 0.360997V28.639H129.985V7.17981L145.802 28.639H148.802V0.360997H145.062V21.74L129.322 0.360997H126.245ZM161.509 28.639V0.360997H164.899L175.067 19.8949L185.197 0.360997H188.508V28.639H184.885V7.9018L176.275 24.3071H173.82L165.171 7.98202V28.639H161.509ZM206.325 27.2351C208.247 28.4117 210.52 29 213.143 29C215.741 29 218 28.4117 219.922 27.2351C221.87 26.0318 223.364 24.3472 224.403 22.1812C225.468 19.9885 226 17.408 226 14.4398C226 11.4984 225.468 8.94467 224.403 6.7787C223.364 4.61272 221.87 2.94145 219.922 1.76487C218 0.58829 215.741 0 213.143 0C210.52 0 208.247 0.58829 206.325 1.76487C204.403 2.94145 202.91 4.61272 201.845 6.7787C200.806 8.94467 200.287 11.5118 200.287 14.4799C200.287 17.4214 200.806 19.9885 201.845 22.1812C202.91 24.3472 204.403 26.0318 206.325 27.2351ZM219.494 22.5422C217.987 24.4408 215.871 25.39 213.143 25.39C210.416 25.39 208.286 24.4408 206.754 22.5422C205.248 20.6169 204.494 17.9295 204.494 14.4799C204.494 11.0304 205.248 8.35639 206.754 6.45782C208.286 4.55925 210.416 3.60996 213.143 3.60996C215.897 3.60996 218.026 4.55925 219.533 6.45782C221.039 8.35639 221.792 11.0304 221.792 14.4799C221.792 17.9295 221.026 20.6169 219.494 22.5422Z" fill="#000000"/>
</svg>
